<?xml version="1.0" standalone="no"?>
<!DOCTYPE svg PUBLIC "-//W3C//DTD SVG 20010904//EN"
 "http://www.w3.org/TR/2001/REC-SVG-20010904/DTD/svg10.dtd">
<svg version="1.0" xmlns="http://www.w3.org/2000/svg"
 width="314.000000pt" height="314.000000pt" viewBox="0 0 314.000000 314.000000"
 preserveAspectRatio="xMidYMid meet">
<metadata>
Created by potrace 1.11, written by Peter Selinger 2001-2013
</metadata>
<g transform="translate(0.000000,314.000000) scale(0.100000,-0.100000)"
fill="#000000" stroke="none">
<path d="M1405 3133 c-91 -8 -261 -46 -356 -79 -461 -160 -821 -523 -968 -972
-130 -397 -99 -809 89 -1187 225 -450 626 -754 1125 -852 125 -24 422 -24 555
0 478 89 890 398 1105 832 120 242 158 403 159 675 1 284 -42 469 -169 725
-285 574 -897 915 -1540 858z m1129 -615 c33 -15 54 -47 61 -95 3 -21 14 -163
25 -315 23 -315 21 -336 -42 -362 -38 -16 -615 -61 -657 -51 -16 3 -38 17 -51
30 -27 28 -32 67 -56 421 -17 249 -17 263 0 288 30 46 66 54 336 74 315 24
353 25 384 10z m-1491 -97 c78 -34 136 -79 183 -143 179 -244 56 -594 -235
-670 -37 -9 -63 -17 -58 -17 4 -1 386 31 849 69 463 39 848 68 855 66 8 -4 13
-24 13 -54 l0 -48 -452 -37 c-1036 -86 -1636 -136 -1685 -142 l-51 -5 -4 54
-3 54 50 5 c28 3 124 12 214 18 l164 13 -74 16 c-98 22 -172 61 -235 126 -222
227 -128 596 181 707 69 24 219 18 288 -12z m568 -938 c118 -135 351 -588 366
-712 7 -59 -2 -67 -98 -88 -57 -12 -128 -16 -309 -16 -248 0 -376 15 -427 48
-22 15 -24 21 -18 53 26 137 274 605 382 720 40 42 63 41 104 -5z"/>
</g>
</svg>
