<?xml version="1.0" standalone="no"?>
<!DOCTYPE svg PUBLIC "-//W3C//DTD SVG 20010904//EN"
 "http://www.w3.org/TR/2001/REC-SVG-20010904/DTD/svg10.dtd">
<svg version="1.0" xmlns="http://www.w3.org/2000/svg"
 width="312.000000pt" height="312.000000pt" viewBox="0 0 312.000000 312.000000"
 preserveAspectRatio="xMidYMid meet">
<metadata>
Created by potrace 1.11, written by Peter Selinger 2001-2013
</metadata>
<g transform="translate(0.000000,312.000000) scale(0.100000,-0.100000)"
fill="#000000" stroke="none">
<path d="M1355 3109 c-674 -92 -1209 -598 -1332 -1259 -27 -146 -24 -431 6
-570 122 -574 514 -1021 1047 -1198 185 -62 288 -77 504 -76 152 0 204 4 290
23 210 45 383 115 548 224 352 232 584 574 674 991 30 139 32 423 4 571 -120
642 -613 1148 -1242 1276 -116 23 -389 33 -499 18z m-361 -698 c151 -74 233
-245 193 -406 -85 -344 -544 -386 -692 -63 -71 154 -18 341 125 441 75 52 128
67 227 64 67 -3 92 -9 147 -36z m1233 -121 c147 -16 278 -35 290 -41 47 -25
48 -48 14 -357 -34 -301 -40 -326 -87 -338 -40 -10 -595 54 -622 72 -13 8 -27
25 -31 37 -8 20 34 461 54 576 8 44 46 81 84 81 16 0 150 -13 298 -30z m-1562
-565 c72 -8 175 -19 230 -25 326 -32 462 -47 950 -100 297 -33 564 -62 593
-65 37 -5 52 -11 52 -22 0 -11 -8 -14 -37 -9 -21 3 -171 19 -333 36 -162 17
-354 37 -427 45 -73 8 -139 15 -149 15 -11 0 1 -19 38 -58 159 -172 448 -702
448 -822 0 -21 -7 -30 -27 -39 -156 -62 -760 -65 -969 -6 -29 8 -55 22 -58 31
-31 81 294 672 464 845 l55 56 -310 33 c-171 18 -403 42 -518 54 -114 12 -207
25 -207 29 0 4 0 12 0 17 0 6 16 8 38 5 20 -3 96 -11 167 -20z"/>
</g>
</svg>
